<mxfile host="app.diagrams.net" modified="2020-07-22T22:31:54.055Z" agent="5.0 (Windows NT 10.0; Win64; x64) AppleWebKit/537.36 (KHTML, like Gecko) Chrome/84.0.4147.89 Safari/537.36" etag="SSwSUzBVIAw1ZHAxfvjq" version="13.5.1" type="github">
  <diagram id="NnyLSurvaoDhBmxwmxYD" name="Page-1">
    <mxGraphModel dx="1422" dy="804" grid="1" gridSize="10" guides="1" tooltips="1" connect="1" arrows="1" fold="1" page="1" pageScale="1" pageWidth="1100" pageHeight="1700" math="0" shadow="0">
      <root>
        <mxCell id="0" />
        <mxCell id="1" parent="0" />
        <mxCell id="gXKau-As1yWKQFNBcPZa-2" style="edgeStyle=orthogonalEdgeStyle;rounded=0;orthogonalLoop=1;jettySize=auto;html=1;exitX=0.5;exitY=1;exitDx=0;exitDy=0;entryX=0.5;entryY=0;entryDx=0;entryDy=0;" parent="1" source="Zo4STZ35aPRxYPcXV8oS-1" target="gXKau-As1yWKQFNBcPZa-1" edge="1">
          <mxGeometry relative="1" as="geometry" />
        </mxCell>
        <mxCell id="Zo4STZ35aPRxYPcXV8oS-1" value="" style="ellipse;whiteSpace=wrap;html=1;aspect=fixed;fillColor=#dae8fc;strokeColor=#6c8ebf;" parent="1" vertex="1">
          <mxGeometry x="520" y="60" width="30" height="30" as="geometry" />
        </mxCell>
        <mxCell id="Zo4STZ35aPRxYPcXV8oS-4" value="" style="group" parent="1" vertex="1" connectable="0">
          <mxGeometry x="570" y="730" width="30" height="30" as="geometry" />
        </mxCell>
        <mxCell id="Zo4STZ35aPRxYPcXV8oS-2" value="" style="ellipse;whiteSpace=wrap;html=1;aspect=fixed;fillColor=#dae8fc;strokeColor=#6c8ebf;" parent="Zo4STZ35aPRxYPcXV8oS-4" vertex="1">
          <mxGeometry width="30" height="30" as="geometry" />
        </mxCell>
        <mxCell id="Zo4STZ35aPRxYPcXV8oS-3" value="" style="ellipse;whiteSpace=wrap;html=1;aspect=fixed;fillColor=#dae8fc;strokeColor=#6c8ebf;" parent="Zo4STZ35aPRxYPcXV8oS-4" vertex="1">
          <mxGeometry x="10" y="10" width="10" height="10" as="geometry" />
        </mxCell>
        <mxCell id="gXKau-As1yWKQFNBcPZa-3" style="edgeStyle=orthogonalEdgeStyle;rounded=0;orthogonalLoop=1;jettySize=auto;html=1;exitX=0;exitY=0.5;exitDx=0;exitDy=0;entryX=1;entryY=0.5;entryDx=0;entryDy=0;" parent="1" source="gXKau-As1yWKQFNBcPZa-1" target="gXKau-As1yWKQFNBcPZa-8" edge="1">
          <mxGeometry relative="1" as="geometry">
            <mxPoint x="350" y="185" as="targetPoint" />
          </mxGeometry>
        </mxCell>
        <mxCell id="gXKau-As1yWKQFNBcPZa-4" style="edgeStyle=orthogonalEdgeStyle;rounded=0;orthogonalLoop=1;jettySize=auto;html=1;exitX=1;exitY=0.5;exitDx=0;exitDy=0;entryX=0;entryY=0.5;entryDx=0;entryDy=0;" parent="1" source="gXKau-As1yWKQFNBcPZa-1" target="gXKau-As1yWKQFNBcPZa-9" edge="1">
          <mxGeometry relative="1" as="geometry">
            <mxPoint x="720" y="185" as="targetPoint" />
          </mxGeometry>
        </mxCell>
        <mxCell id="gXKau-As1yWKQFNBcPZa-1" value="" style="rhombus;whiteSpace=wrap;html=1;" parent="1" vertex="1">
          <mxGeometry x="520" y="170" width="30" height="30" as="geometry" />
        </mxCell>
        <mxCell id="gXKau-As1yWKQFNBcPZa-6" value="[Remove course]" style="text;html=1;strokeColor=none;fillColor=none;align=center;verticalAlign=middle;whiteSpace=wrap;rounded=0;" parent="1" vertex="1">
          <mxGeometry x="580" y="150" width="100" height="20" as="geometry" />
        </mxCell>
        <mxCell id="gXKau-As1yWKQFNBcPZa-7" value="[Add course]" style="text;html=1;strokeColor=none;fillColor=none;align=center;verticalAlign=middle;whiteSpace=wrap;rounded=0;" parent="1" vertex="1">
          <mxGeometry x="390" y="150" width="80" height="20" as="geometry" />
        </mxCell>
        <mxCell id="gXKau-As1yWKQFNBcPZa-11" style="edgeStyle=orthogonalEdgeStyle;rounded=0;orthogonalLoop=1;jettySize=auto;html=1;exitX=0.5;exitY=1;exitDx=0;exitDy=0;" parent="1" source="gXKau-As1yWKQFNBcPZa-8" target="gXKau-As1yWKQFNBcPZa-10" edge="1">
          <mxGeometry relative="1" as="geometry" />
        </mxCell>
        <mxCell id="gXKau-As1yWKQFNBcPZa-8" value="Input course ID" style="rounded=1;whiteSpace=wrap;html=1;" parent="1" vertex="1">
          <mxGeometry x="220" y="155" width="120" height="60" as="geometry" />
        </mxCell>
        <mxCell id="gXKau-As1yWKQFNBcPZa-30" style="edgeStyle=orthogonalEdgeStyle;rounded=0;orthogonalLoop=1;jettySize=auto;html=1;exitX=0.5;exitY=1;exitDx=0;exitDy=0;entryX=0.5;entryY=0;entryDx=0;entryDy=0;" parent="1" source="gXKau-As1yWKQFNBcPZa-9" target="gXKau-As1yWKQFNBcPZa-19" edge="1">
          <mxGeometry relative="1" as="geometry" />
        </mxCell>
        <mxCell id="gXKau-As1yWKQFNBcPZa-9" value="Input course ID" style="rounded=1;whiteSpace=wrap;html=1;" parent="1" vertex="1">
          <mxGeometry x="730" y="155" width="120" height="60" as="geometry" />
        </mxCell>
        <mxCell id="gXKau-As1yWKQFNBcPZa-27" style="edgeStyle=orthogonalEdgeStyle;rounded=0;orthogonalLoop=1;jettySize=auto;html=1;exitX=0.25;exitY=1;exitDx=0;exitDy=0;entryX=0.75;entryY=0;entryDx=0;entryDy=0;" parent="1" source="gXKau-As1yWKQFNBcPZa-10" target="gXKau-As1yWKQFNBcPZa-26" edge="1">
          <mxGeometry relative="1" as="geometry" />
        </mxCell>
        <mxCell id="gXKau-As1yWKQFNBcPZa-28" style="edgeStyle=orthogonalEdgeStyle;rounded=0;orthogonalLoop=1;jettySize=auto;html=1;exitX=0.75;exitY=1;exitDx=0;exitDy=0;entryX=0.25;entryY=0;entryDx=0;entryDy=0;" parent="1" source="gXKau-As1yWKQFNBcPZa-10" target="gXKau-As1yWKQFNBcPZa-12" edge="1">
          <mxGeometry relative="1" as="geometry" />
        </mxCell>
        <mxCell id="gXKau-As1yWKQFNBcPZa-10" value="Find course in course table" style="rounded=1;whiteSpace=wrap;html=1;" parent="1" vertex="1">
          <mxGeometry x="220" y="280" width="120" height="60" as="geometry" />
        </mxCell>
        <mxCell id="gXKau-As1yWKQFNBcPZa-18" style="edgeStyle=orthogonalEdgeStyle;rounded=0;orthogonalLoop=1;jettySize=auto;html=1;exitX=0.5;exitY=1;exitDx=0;exitDy=0;entryX=0.5;entryY=0;entryDx=0;entryDy=0;" parent="1" source="gXKau-As1yWKQFNBcPZa-12" edge="1" target="L_O0w92oD_vTwydtMeIG-1">
          <mxGeometry relative="1" as="geometry">
            <mxPoint x="460" y="560" as="targetPoint" />
            <Array as="points" />
          </mxGeometry>
        </mxCell>
        <mxCell id="gXKau-As1yWKQFNBcPZa-12" value="Add course to student&#39;s course list" style="rounded=1;whiteSpace=wrap;html=1;" parent="1" vertex="1">
          <mxGeometry x="360" y="450" width="120" height="60" as="geometry" />
        </mxCell>
        <mxCell id="gXKau-As1yWKQFNBcPZa-14" value="" style="endArrow=none;html=1;" parent="1" edge="1">
          <mxGeometry width="50" height="50" relative="1" as="geometry">
            <mxPoint x="445" y="620" as="sourcePoint" />
            <mxPoint x="725" y="620" as="targetPoint" />
          </mxGeometry>
        </mxCell>
        <mxCell id="gXKau-As1yWKQFNBcPZa-40" style="edgeStyle=orthogonalEdgeStyle;rounded=0;orthogonalLoop=1;jettySize=auto;html=1;exitX=0.5;exitY=1;exitDx=0;exitDy=0;entryX=0.5;entryY=0;entryDx=0;entryDy=0;" parent="1" source="gXKau-As1yWKQFNBcPZa-16" target="Zo4STZ35aPRxYPcXV8oS-2" edge="1">
          <mxGeometry relative="1" as="geometry" />
        </mxCell>
        <mxCell id="gXKau-As1yWKQFNBcPZa-16" value="Give confirmation to user" style="rounded=1;whiteSpace=wrap;html=1;" parent="1" vertex="1">
          <mxGeometry x="525" y="650" width="120" height="60" as="geometry" />
        </mxCell>
        <mxCell id="gXKau-As1yWKQFNBcPZa-17" value="" style="endArrow=classic;html=1;entryX=0.5;entryY=0;entryDx=0;entryDy=0;" parent="1" target="gXKau-As1yWKQFNBcPZa-16" edge="1">
          <mxGeometry width="50" height="50" relative="1" as="geometry">
            <mxPoint x="585" y="620" as="sourcePoint" />
            <mxPoint x="570" y="380" as="targetPoint" />
          </mxGeometry>
        </mxCell>
        <mxCell id="gXKau-As1yWKQFNBcPZa-36" style="edgeStyle=orthogonalEdgeStyle;rounded=0;orthogonalLoop=1;jettySize=auto;html=1;exitX=0.25;exitY=1;exitDx=0;exitDy=0;entryX=0.75;entryY=0;entryDx=0;entryDy=0;" parent="1" source="gXKau-As1yWKQFNBcPZa-19" target="gXKau-As1yWKQFNBcPZa-34" edge="1">
          <mxGeometry relative="1" as="geometry" />
        </mxCell>
        <mxCell id="gXKau-As1yWKQFNBcPZa-37" style="edgeStyle=orthogonalEdgeStyle;rounded=0;orthogonalLoop=1;jettySize=auto;html=1;exitX=0.75;exitY=1;exitDx=0;exitDy=0;entryX=0.25;entryY=0;entryDx=0;entryDy=0;" parent="1" source="gXKau-As1yWKQFNBcPZa-19" target="gXKau-As1yWKQFNBcPZa-35" edge="1">
          <mxGeometry relative="1" as="geometry" />
        </mxCell>
        <mxCell id="gXKau-As1yWKQFNBcPZa-19" value="Check for course in student&#39;s courses" style="rounded=1;whiteSpace=wrap;html=1;" parent="1" vertex="1">
          <mxGeometry x="730" y="280" width="120" height="60" as="geometry" />
        </mxCell>
        <mxCell id="gXKau-As1yWKQFNBcPZa-22" value="[Found]" style="text;html=1;strokeColor=none;fillColor=none;align=center;verticalAlign=middle;whiteSpace=wrap;rounded=0;" parent="1" vertex="1">
          <mxGeometry x="360" y="360" width="40" height="20" as="geometry" />
        </mxCell>
        <mxCell id="gXKau-As1yWKQFNBcPZa-24" value="[Not found]" style="text;html=1;align=center;verticalAlign=middle;resizable=0;points=[];autosize=1;" parent="1" vertex="1">
          <mxGeometry x="170" y="370" width="70" height="20" as="geometry" />
        </mxCell>
        <mxCell id="gXKau-As1yWKQFNBcPZa-29" style="edgeStyle=orthogonalEdgeStyle;rounded=0;orthogonalLoop=1;jettySize=auto;html=1;exitX=0.5;exitY=1;exitDx=0;exitDy=0;entryX=0;entryY=0.5;entryDx=0;entryDy=0;" parent="1" source="gXKau-As1yWKQFNBcPZa-26" target="Zo4STZ35aPRxYPcXV8oS-2" edge="1">
          <mxGeometry relative="1" as="geometry" />
        </mxCell>
        <mxCell id="gXKau-As1yWKQFNBcPZa-26" value="Give user error information" style="rounded=1;whiteSpace=wrap;html=1;" parent="1" vertex="1">
          <mxGeometry x="130" y="450" width="120" height="60" as="geometry" />
        </mxCell>
        <mxCell id="gXKau-As1yWKQFNBcPZa-31" value="[Not found]" style="text;html=1;align=center;verticalAlign=middle;resizable=0;points=[];autosize=1;" parent="1" vertex="1">
          <mxGeometry x="860" y="350" width="70" height="20" as="geometry" />
        </mxCell>
        <mxCell id="gXKau-As1yWKQFNBcPZa-32" value="[Found]" style="text;html=1;strokeColor=none;fillColor=none;align=center;verticalAlign=middle;whiteSpace=wrap;rounded=0;" parent="1" vertex="1">
          <mxGeometry x="700" y="350" width="40" height="20" as="geometry" />
        </mxCell>
        <mxCell id="gXKau-As1yWKQFNBcPZa-34" value="Remove course ID from student&#39;s courses" style="rounded=1;whiteSpace=wrap;html=1;" parent="1" vertex="1">
          <mxGeometry x="645" y="420" width="120" height="60" as="geometry" />
        </mxCell>
        <mxCell id="gXKau-As1yWKQFNBcPZa-38" style="edgeStyle=orthogonalEdgeStyle;rounded=0;orthogonalLoop=1;jettySize=auto;html=1;exitX=0.5;exitY=1;exitDx=0;exitDy=0;entryX=1;entryY=0.5;entryDx=0;entryDy=0;" parent="1" source="gXKau-As1yWKQFNBcPZa-35" target="Zo4STZ35aPRxYPcXV8oS-2" edge="1">
          <mxGeometry relative="1" as="geometry" />
        </mxCell>
        <mxCell id="gXKau-As1yWKQFNBcPZa-35" value="Give user error information" style="rounded=1;whiteSpace=wrap;html=1;" parent="1" vertex="1">
          <mxGeometry x="860" y="420" width="120" height="60" as="geometry" />
        </mxCell>
        <mxCell id="Q8EPCg4n_Xgz2PHtezch-6" style="edgeStyle=orthogonalEdgeStyle;rounded=0;orthogonalLoop=1;jettySize=auto;html=1;exitX=0;exitY=0.5;exitDx=0;exitDy=0;entryX=1;entryY=0.5;entryDx=0;entryDy=0;" parent="1" source="Q8EPCg4n_Xgz2PHtezch-1" target="gXKau-As1yWKQFNBcPZa-19" edge="1">
          <mxGeometry relative="1" as="geometry" />
        </mxCell>
        <mxCell id="Q8EPCg4n_Xgz2PHtezch-1" value="Database" style="rounded=0;whiteSpace=wrap;html=1;" parent="1" vertex="1">
          <mxGeometry x="940" y="240" width="120" height="60" as="geometry" />
        </mxCell>
        <mxCell id="Q8EPCg4n_Xgz2PHtezch-3" style="edgeStyle=orthogonalEdgeStyle;rounded=0;orthogonalLoop=1;jettySize=auto;html=1;exitX=0.5;exitY=1;exitDx=0;exitDy=0;entryX=0.5;entryY=0;entryDx=0;entryDy=0;" parent="1" source="Q8EPCg4n_Xgz2PHtezch-2" target="gXKau-As1yWKQFNBcPZa-8" edge="1">
          <mxGeometry relative="1" as="geometry" />
        </mxCell>
        <mxCell id="Q8EPCg4n_Xgz2PHtezch-2" value="User interface" style="rounded=0;whiteSpace=wrap;html=1;" parent="1" vertex="1">
          <mxGeometry x="220" y="10" width="120" height="60" as="geometry" />
        </mxCell>
        <mxCell id="Q8EPCg4n_Xgz2PHtezch-5" style="edgeStyle=orthogonalEdgeStyle;rounded=0;orthogonalLoop=1;jettySize=auto;html=1;exitX=0.5;exitY=1;exitDx=0;exitDy=0;entryX=0.5;entryY=0;entryDx=0;entryDy=0;" parent="1" source="Q8EPCg4n_Xgz2PHtezch-4" target="gXKau-As1yWKQFNBcPZa-9" edge="1">
          <mxGeometry relative="1" as="geometry" />
        </mxCell>
        <mxCell id="Q8EPCg4n_Xgz2PHtezch-4" value="User interface" style="rounded=0;whiteSpace=wrap;html=1;" parent="1" vertex="1">
          <mxGeometry x="730" y="10" width="120" height="60" as="geometry" />
        </mxCell>
        <mxCell id="Q8EPCg4n_Xgz2PHtezch-8" style="edgeStyle=orthogonalEdgeStyle;rounded=0;orthogonalLoop=1;jettySize=auto;html=1;exitX=1;exitY=0.5;exitDx=0;exitDy=0;entryX=0;entryY=0.5;entryDx=0;entryDy=0;" parent="1" source="Q8EPCg4n_Xgz2PHtezch-7" target="gXKau-As1yWKQFNBcPZa-10" edge="1">
          <mxGeometry relative="1" as="geometry" />
        </mxCell>
        <mxCell id="Q8EPCg4n_Xgz2PHtezch-7" value="Database" style="rounded=0;whiteSpace=wrap;html=1;" parent="1" vertex="1">
          <mxGeometry x="20" y="270" width="120" height="60" as="geometry" />
        </mxCell>
        <mxCell id="L_O0w92oD_vTwydtMeIG-5" style="edgeStyle=orthogonalEdgeStyle;rounded=0;orthogonalLoop=1;jettySize=auto;html=1;" edge="1" parent="1" source="L_O0w92oD_vTwydtMeIG-1">
          <mxGeometry relative="1" as="geometry">
            <mxPoint x="510" y="620" as="targetPoint" />
          </mxGeometry>
        </mxCell>
        <mxCell id="L_O0w92oD_vTwydtMeIG-1" value="Add user to course roster" style="rounded=1;whiteSpace=wrap;html=1;" vertex="1" parent="1">
          <mxGeometry x="360" y="540" width="120" height="60" as="geometry" />
        </mxCell>
        <mxCell id="L_O0w92oD_vTwydtMeIG-2" value="" style="endArrow=classic;html=1;exitX=0.5;exitY=1;exitDx=0;exitDy=0;" edge="1" parent="1" source="gXKau-As1yWKQFNBcPZa-34">
          <mxGeometry width="50" height="50" relative="1" as="geometry">
            <mxPoint x="660" y="580" as="sourcePoint" />
            <mxPoint x="705" y="520" as="targetPoint" />
          </mxGeometry>
        </mxCell>
        <mxCell id="L_O0w92oD_vTwydtMeIG-4" style="edgeStyle=orthogonalEdgeStyle;rounded=0;orthogonalLoop=1;jettySize=auto;html=1;" edge="1" parent="1" source="L_O0w92oD_vTwydtMeIG-3">
          <mxGeometry relative="1" as="geometry">
            <mxPoint x="705" y="620" as="targetPoint" />
          </mxGeometry>
        </mxCell>
        <mxCell id="L_O0w92oD_vTwydtMeIG-3" value="Remove User from course Roster" style="rounded=1;whiteSpace=wrap;html=1;" vertex="1" parent="1">
          <mxGeometry x="645" y="520" width="120" height="60" as="geometry" />
        </mxCell>
      </root>
    </mxGraphModel>
  </diagram>
</mxfile>
